<?xml version="1.0" encoding="UTF-8"?>
<svg version="1.1" viewBox="0 0 284 1160" xmlns="http://www.w3.org/2000/svg" xmlns:cc="http://creativecommons.org/ns#" xmlns:dc="http://purl.org/dc/elements/1.1/" xmlns:rdf="http://www.w3.org/1999/02/22-rdf-syntax-ns#"><metadata><rdf:RDF><cc:Work rdf:about=""><dc:format>image/svg+xml</dc:format><dc:type rdf:resource="http://purl.org/dc/dcmitype/StillImage"/><dc:title/></cc:Work></rdf:RDF></metadata><g transform="translate(-931 238)"><g transform="rotate(90 1073 342)"><rect x="493" y="318" width="1160" height="48" fill="#666"/><path transform="translate(0 -1108)" d="m799 1309c-21 0-37 4-49 11-.053.028-.1.065-.16.094-18 9-27 23-34 37-15 28-22 59-56 69-1.3.39-2.6.75-3.9 1.1v46c1.3.38 2.6.77 3.9 1.2 65 19 13 117 139 117 .74 0 1.5-.033 2.3-.062 1.4.029 2.9.062 4.3.062 30 0 103-26 131-26h185c28 0 101 26 131 26 1.5 0 2.9-.034 4.3-.062.78.03 1.6.062 2.3.062 126 0 75-98 139-117 1.3-.39 2.6-.78 3.9-1.2v-46c-1.3-.38-2.6-.74-3.9-1.1-34-10-41-41-56-69-6.5-15-16-28-34-37-.053-.029-.1-.065-.16-.094-12-6.6-28-11-49-11-.72 0-1.5.034-2.2.062-1.4-.029-2.9-.062-4.4-.062-30 0-103 26-131 26h-185c-28 0-101-26-131-26-1.5 0-3 .034-4.4.062-.77-.029-1.5-.062-2.2-.062z" fill="#d9bb7a" stroke="#565248"/><g fill="none"><path id="bandA" transform="translate(0 -28)" d="m799 229c-3.7 0-7.3.11-11 .34v282c3.4.16 7 .25 11 .25.74 0 1.5-.034 2.3-.062 1.4.029 2.9.062 4.3.062 12 0 31-4.1 51-9.1v-265c-20-4.9-39-9.1-51-9.1-1.5 0-3 .034-4.4.062-.77-.029-1.5-.062-2.2-.062z"/><path id="bandB" transform="translate(0 -28)" d="m901 249v243c14-3.3 27-5.6 35-5.6h33v-232h-33c-8.5 0-21-2.4-35-5.6z"/><path id="bandC" transform="translate(0 -28)" d="m1e3 254v232h69v-232z"/><path id="bandD" transform="translate(0 -28)" d="m1253 229c-6.5 0-15 1.2-24 3.1v277c9.6 1.9 18 3.1 24 3.1 1.5 0 2.9-.034 4.3-.062.78.03 1.6.062 2.3.062 15 0 27-1.3 38-3.8v-274c-10-3.4-22-5.4-38-5.4-.72 0-1.5.034-2.2.062-1.4-.029-2.9-.062-4.4-.062z"/></g></g></g></svg>
